<?xml version="1.0" standalone="no"?><svg xmlns="http://www.w3.org/2000/svg" viewBox="0 0 1440 320"><path fill="#0099ff" fill-opacity="1" d="M0,224L20,208C40,192,80,160,120,160C160,160,200,192,240,170.7C280,149,320,75,360,80C400,85,440,171,480,170.7C520,171,560,85,600,58.7C640,32,680,64,720,96C760,128,800,160,840,154.7C880,149,920,107,960,101.3C1000,96,1040,128,1080,160C1120,192,1160,224,1200,229.3C1240,235,1280,213,1320,186.7C1360,160,1400,128,1420,112L1440,96L1440,320L1420,320C1400,320,1360,320,1320,320C1280,320,1240,320,1200,320C1160,320,1120,320,1080,320C1040,320,1000,320,960,320C920,320,880,320,840,320C800,320,760,320,720,320C680,320,640,320,600,320C560,320,520,320,480,320C440,320,400,320,360,320C320,320,280,320,240,320C200,320,160,320,120,320C80,320,40,320,20,320L0,320Z"></path></svg>